# xmcd CD database file
#
# Track frame offsets:
#	150
#	30010
#	71552
#	91900
#	111750
#	136152
#	150753
#	164149
#	184263
#
# Disc length: 2621 seconds
#
# Revision: 0
# Processed by: cddbd v1.5.2PL0 Copyright (c) Steve Scherf et al.
# Submitted via: CDex 1.51
#
DISCID=660a3b09
DTITLE=Kenny Dorham - Orpheus
DYEAR=1957
DGENRE=Jazz
TTITLE0=Noose Bloos
TTITLE1=Falling in Love with Love
TTITLE2=Larue
TTITLE3=I'll Be Seeing You
TTITLE4=My Old Flame
TTITLE5=Jazz-Classic
TTITLE6=Soon
TTITLE7=The End of a Love Affair
TTITLE8=But Beautiful
EXTD=YEAR: 1957
EXTT0=
EXTT1=
EXTT2=
EXTT3=
EXTT4=
EXTT5=
EXTT6=
EXTT7=
EXTT8=
PLAYORDER=
